<mxfile host="app.diagrams.net" modified="2021-05-10T01:34:05.448Z" agent="5.0 (Windows NT 10.0; Win64; x64) AppleWebKit/537.36 (KHTML, like Gecko) Chrome/90.0.4430.93 Safari/537.36" etag="6TBL-COvvy8WGA9kCOTD" version="14.6.11" type="github">
  <diagram id="avIwicvBaRZfpHcQR6ST" name="Page-1">
    <mxGraphModel dx="1038" dy="585" grid="1" gridSize="10" guides="1" tooltips="1" connect="1" arrows="1" fold="1" page="1" pageScale="1" pageWidth="827" pageHeight="1169" math="0" shadow="0">
      <root>
        <mxCell id="0" />
        <mxCell id="1" parent="0" />
        <mxCell id="eFQooxO47ISzHhST6Agu-1" value="Start" style="ellipse;whiteSpace=wrap;html=1;" vertex="1" parent="1">
          <mxGeometry x="330" y="30" width="120" height="90" as="geometry" />
        </mxCell>
        <mxCell id="eFQooxO47ISzHhST6Agu-2" value="" style="html=1;shadow=0;dashed=0;align=center;verticalAlign=middle;shape=mxgraph.arrows2.arrow;dy=0.6;dx=40;direction=south;notch=0;" vertex="1" parent="1">
          <mxGeometry x="360" y="120" width="70" height="100" as="geometry" />
        </mxCell>
        <mxCell id="eFQooxO47ISzHhST6Agu-3" value="Input Celcius" style="shape=parallelogram;perimeter=parallelogramPerimeter;whiteSpace=wrap;html=1;fixedSize=1;" vertex="1" parent="1">
          <mxGeometry x="335" y="220" width="120" height="60" as="geometry" />
        </mxCell>
        <mxCell id="eFQooxO47ISzHhST6Agu-4" value="" style="html=1;shadow=0;dashed=0;align=center;verticalAlign=middle;shape=mxgraph.arrows2.arrow;dy=0.6;dx=40;direction=south;notch=0;" vertex="1" parent="1">
          <mxGeometry x="360" y="280" width="70" height="100" as="geometry" />
        </mxCell>
        <mxCell id="eFQooxO47ISzHhST6Agu-5" value="Calculate fareinheit = 9.5 Celcius + 32" style="rounded=0;whiteSpace=wrap;html=1;" vertex="1" parent="1">
          <mxGeometry x="335" y="380" width="120" height="60" as="geometry" />
        </mxCell>
        <mxCell id="eFQooxO47ISzHhST6Agu-6" value="Disp;lay Fareinheight" style="shape=parallelogram;perimeter=parallelogramPerimeter;whiteSpace=wrap;html=1;fixedSize=1;" vertex="1" parent="1">
          <mxGeometry x="330" y="525" width="120" height="60" as="geometry" />
        </mxCell>
        <mxCell id="eFQooxO47ISzHhST6Agu-7" value="" style="html=1;shadow=0;dashed=0;align=center;verticalAlign=middle;shape=mxgraph.arrows2.arrow;dy=0.6;dx=40;direction=south;notch=0;" vertex="1" parent="1">
          <mxGeometry x="360" y="430" width="70" height="100" as="geometry" />
        </mxCell>
        <mxCell id="eFQooxO47ISzHhST6Agu-8" value="" style="html=1;shadow=0;dashed=0;align=center;verticalAlign=middle;shape=mxgraph.arrows2.arrow;dy=0.6;dx=40;direction=south;notch=0;" vertex="1" parent="1">
          <mxGeometry x="355" y="585" width="70" height="100" as="geometry" />
        </mxCell>
        <mxCell id="eFQooxO47ISzHhST6Agu-9" value="ENd" style="ellipse;whiteSpace=wrap;html=1;" vertex="1" parent="1">
          <mxGeometry x="335" y="685" width="120" height="80" as="geometry" />
        </mxCell>
      </root>
    </mxGraphModel>
  </diagram>
</mxfile>
